<?xml version="1.0" encoding="UTF-8"?> <svg xmlns="http://www.w3.org/2000/svg" id="Layer_2" viewBox="0 0 586.29 94.82"><defs><style>.cls-1{fill:#04060c;}.cls-2{fill:#efc11a;}</style></defs><g id="Layer_1-2"><path class="cls-1" d="M56.17,0v94.82l41.62-41.63V0h-41.62ZM89.26,49.66l-24.56,24.56V8.53h24.56v41.13Z"></path><path class="cls-2" d="M41.62,0v12.06l.16-.16,14.38,13.62v-11.74L41.62,0ZM64.69,21.85v11.74l20.86,19.76,3.7-3.7v-4.54l-24.56-23.26ZM41.62,69.3v11.74l14.54,13.78v-12.07l-.17.17-14.38-13.62ZM12.23,41.46l-3.7,3.7v4.54l24.56,23.27v-11.75l-20.86-19.76Z"></path><path class="cls-1" d="M0,41.62v53.2h41.62V0L0,41.62ZM33.09,86.29H8.53v-41.13l24.56-24.56v65.69Z"></path><polygon class="cls-1" points="149.94 48.07 149.94 93.95 124.3 93.95 124.3 .6 144.28 .6 181.75 48.07 181.75 .6 207.39 .6 207.39 93.95 187.01 93.95 149.94 48.07"></polygon><polygon class="cls-1" points="292.59 22.95 265.77 22.95 265.77 93.95 240.13 93.95 240.13 22.95 213.18 22.95 213.18 .6 292.59 .6 292.59 22.95"></polygon><polygon class="cls-1" points="364.89 71.6 364.89 93.95 298.37 93.95 298.37 .6 363.71 .6 363.71 22.95 324.01 22.95 324.01 36.1 357.93 36.1 357.93 56.87 324.01 56.87 324.01 71.6 364.89 71.6"></polygon><path class="cls-1" d="M373.31,93.95V.6h42.86c4.56,0,8.76.94,12.62,2.83,3.86,1.89,7.17,4.34,9.93,7.36,2.76,3.02,4.93,6.49,6.51,10.39,1.58,3.9,2.37,7.82,2.37,11.77,0,5.44-1.18,10.5-3.55,15.19-2.37,4.69-5.65,8.52-9.86,11.5l19.72,34.31h-28.93l-16.43-28.66h-9.6v28.66h-25.64ZM398.94,42.94h16.17c1.58,0,3.05-.88,4.41-2.63,1.36-1.75,2.04-4.21,2.04-7.36s-.79-5.72-2.37-7.43c-1.58-1.71-3.16-2.56-4.73-2.56h-15.51v19.98Z"></path><rect class="cls-1" x="458.5" y=".6" width="25.64" height="93.34"></rect><path class="cls-1" d="M538.7,94.74c-7.1,0-13.54-1.36-19.33-4.08-5.79-2.72-10.74-6.29-14.86-10.71-4.12-4.42-7.32-9.49-9.6-15.18-2.28-5.7-3.42-11.57-3.42-17.62s1.18-12.05,3.55-17.75c2.37-5.7,5.67-10.71,9.93-15.05,4.25-4.34,9.29-7.8,15.12-10.39,5.83-2.58,12.2-3.88,19.13-3.88s13.54,1.36,19.33,4.08c5.79,2.72,10.74,6.31,14.86,10.78,4.12,4.47,7.3,9.56,9.53,15.25,2.23,5.7,3.35,11.53,3.35,17.49s-1.18,12.03-3.55,17.68c-2.37,5.65-5.65,10.65-9.86,14.99-4.21,4.34-9.23,7.82-15.05,10.45-5.83,2.63-12.21,3.94-19.13,3.94M517.53,47.41c0,3.16.44,6.2,1.31,9.14.88,2.94,2.19,5.54,3.94,7.82,1.75,2.28,3.96,4.12,6.64,5.52,2.67,1.4,5.85,2.1,9.53,2.1s6.88-.72,9.6-2.17c2.71-1.45,4.93-3.33,6.64-5.65,1.71-2.32,2.98-4.97,3.81-7.95.83-2.98,1.25-6,1.25-9.07s-.44-6.2-1.31-9.14c-.88-2.94-2.21-5.52-4.01-7.76-1.8-2.23-4.03-4.03-6.71-5.39-2.67-1.36-5.81-2.04-9.4-2.04s-6.86.7-9.53,2.1c-2.68,1.4-4.89,3.27-6.64,5.59-1.75,2.32-3.05,4.95-3.88,7.89-.83,2.94-1.25,5.94-1.25,9"></path></g></svg> 